<!-- Derivative 2024 Jelly Terra. Derived from ArchLinux. -->

<svg width="166.156" height="166.188" viewBox="0 0 166.156 166.188" version="1.1" xmlns="http://www.w3.org/2000/svg">
<path fill="#2c356c" d="M 116.36328,72.521494 34.169922,103.83399 C 25.173875,120.58929 14.395775,140.32123 0,166.18751 c 26.337628,-15.20517 46.754089,-24.57932 65.78125,-28.15625 -0.817034,-3.51405 -1.28155,-7.31518 -1.25,-11.28125 l 0.03125,-0.84375 c 0.417918,-16.87382 9.195664,-29.84979 19.59375,-28.96875 10.39809,0.88104 18.48041,15.28242 18.0625,32.15625 -0.0786,3.17512 -0.43674,6.22955 -1.0625,9.0625 18.82058,3.68164 39.01873,13.03179 65,28.03125 -5.123,-9.4318 -9.69572,-17.93388 -14.0625,-26.03125 -6.87839,-5.33121 -14.05289,-12.2698 -28.6875,-19.78125 10.05899,2.61375 17.2611,5.62932 22.875,9 C 133.06158,104.7623 123.73218,86.97018 116.36328,72.521494 Z" />
<path fill="#e6ab2c" d="M 83.062498,5.68e-6 C 75.665635,18.135165 71.204197,29.997681 62.968751,47.593757 68.01811,52.946073 74.215961,59.179119 84.28125,66.218755 73.460075,61.765907 66.07871,57.295355 60.562497,52.656253 54.550576,65.201055 46.114488,81.58703 34.169922,103.83399 L 116.36328,72.521493 C 98.983718,38.444238 93.75435,25.090713 83.062498,5.68e-6 Z" />
</svg>
